PathFileType  4	(X/Y/Z) C:\Users\antoi\Documents\MyRepositories\mobilecap\ResultsAnalysis
DataRate	CameraRate	NumFrames	NumMarkers	Units	OrigDataRate	OrigDataStartFrame	OrigNumFrames
100.0	100.0	6	51	mm	100.0	331	1321
Frame#	Time	r_knee			r_shank_antsup			r_ankle			r_calc			r_5meta			r_toe			L_knee			L_shank_antsup			L_ankle			L_calc			L_5meta			L_toe			r_sh2			r_sh3			r_sh4			L_sh2			L_sh3			r_thigh1			r_thigh2			r_thigh3			r_thigh4			r_thigh5			L_thigh1			L_thigh2			L_thigh3			L_thigh4			r.ASIS			r.PSIS			L.ASIS			L.PSIS			C7			R_Shoulder			L_Shoulder			R_Sternum			L_Sternum			R_humerus			R_elbow_med			R_elbow_lat			R_forearm			R_wrist_radius			R_wrist_ulna			L_humerus			L_elbow_med			L_elbow_lat			L_forearm			L_wrist_radius			L_wrist_ulna			R_HJC			L_HJC			R_HJC_reg			L_HJC_reg			
		X1	Y1	Z1	X2	Y2	Z2	X3	Y3	Z3	X4	Y4	Z4	X5	Y5	Z5	X6	Y6	Z6	X7	Y7	Z7	X8	Y8	Z8	X9	Y9	Z9	X10	Y10	Z10	X11	Y11	Z11	X12	Y12	Z12	X13	Y13	Z13	X14	Y14	Z14	X15	Y15	Z15	X16	Y16	Z16	X17	Y17	Z17	X18	Y18	Z18	X19	Y19	Z19	X20	Y20	Z20	X21	Y21	Z21	X22	Y22	Z22	X23	Y23	Z23	X24	Y24	Z24	X25	Y25	Z25	X26	Y26	Z26	X27	Y27	Z27	X28	Y28	Z28	X29	Y29	Z29	X30	Y30	Z30	X31	Y31	Z31	X32	Y32	Z32	X33	Y33	Z33	X34	Y34	Z34	X35	Y35	Z35	X36	Y36	Z36	X37	Y37	Z37	X38	Y38	Z38	X39	Y39	Z39	X40	Y40	Z40	X41	Y41	Z41	X42	Y42	Z42	X43	Y43	Z43	X44	Y44	Z44	X45	Y45	Z45	X46	Y46	Z46	X47	Y47	Z47	X48	Y48	Z48	X49	Y49	Z49	X50	Y50	Z50	X51	Y51	Z51	

331	3.30000000	-176.16622	452.15594	-391.33517	-139.13716	384.50308	-396.62857	-280.27524	82.90064	-426.82550	-334.24371	53.69470	-473.37794	-174.38170	42.21392	-399.05057	-135.34728	60.56198	-451.42187	-178.35405	463.22246	-759.63801	-146.69759	372.09650	-768.39664	-275.48251	96.72928	-794.39221	-334.54149	55.22824	-751.05887	-177.47487	43.70709	-829.84456	-126.52386	61.59377	-778.09212	-179.45043	278.89009	-394.38008	-203.38395	409.08124	-363.09722	-251.55646	303.34036	-364.92183	-223.01272	413.38714	-792.05227	-262.12641	298.64797	-811.31419	-225.41590	699.19422	-333.17449	-179.86955	596.85299	-352.24320	-279.03244	553.15024	-374.15461	-328.54494	655.07275	-343.96367	-228.64361	551.11274	-353.08726	-261.30900	731.77131	-742.69458	-196.69800	608.67286	-753.89603	-360.54351	682.84963	-729.07422	-294.79537	559.11541	-724.63174	-222.90052	864.07554	-416.90824	-416.48664	946.30173	-482.78732	-229.10339	863.30004	-632.37725	-416.27838	941.56090	-564.56867	-212.95497	1337.19668	-485.69460	-148.80654	1299.08826	-350.51238	-160.48515	1310.29275	-621.86572	-99.93565	1258.63891	-470.88098	-102.24541	1257.63221	-505.30727	-87.57408	1219.85257	-292.21591	-28.48086	1009.08760	-268.42827	0.56816	1049.65617	-220.46722	86.06491	1082.69841	-246.14154	214.67105	1088.95840	-307.18069	224.31976	1058.62499	-285.70203	-113.55507	1242.22365	-700.25216	-24.47816	1035.98623	-727.41796	-7.72597	1083.60316	-771.10888	96.23099	1102.84174	-747.45299	211.74604	1107.23438	-694.00539	218.21813	1072.66121	-714.40406	-323.12799	800.62954	-416.96386	-327.79017	800.81080	-624.41940	-311.20729	823.31944	-443.95272	-310.84643	815.08535	-585.98275	
332	3.31000000	-173.72855	450.94989	-392.26209	-136.36945	383.16259	-397.76852	-280.21570	82.91926	-426.99028	-334.27334	53.63658	-473.38479	-174.43491	42.37489	-399.12609	-135.61372	60.74974	-451.44705	-177.28079	462.46975	-760.48896	-145.54918	371.14762	-769.21897	-275.65818	96.49911	-794.58863	-334.65121	55.02539	-751.12822	-177.55905	43.72471	-830.00370	-126.60775	61.69339	-778.21351	-177.42568	278.07550	-395.29448	-200.24162	408.16088	-363.56495	-248.98647	302.81392	-364.96787	-221.82787	412.66953	-792.78681	-261.17679	298.25932	-812.03257	-227.63600	696.64731	-333.52764	-180.41965	594.88223	-352.64296	-278.39393	549.84094	-374.54656	-329.92953	650.66723	-344.28329	-228.57528	548.31838	-352.10390	-265.01633	729.47306	-743.13662	-198.19569	607.53025	-754.17894	-363.80090	678.76977	-729.17493	-295.53403	556.20781	-725.46507	-226.76302	858.64864	-417.25013	-419.47041	943.35272	-482.78019	-233.63021	857.66036	-632.61596	-419.59020	938.49096	-564.42545	-209.35600	1330.65159	-485.64330	-144.78024	1291.95469	-350.90927	-157.28305	1303.49733	-621.45986	-97.44274	1250.47392	-471.21527	-99.72971	1249.68919	-505.62224	-83.52804	1213.40318	-293.02290	-23.64597	1003.15024	-267.89905	5.22319	1043.98138	-220.37490	90.35915	1077.30353	-246.75115	218.48818	1084.23783	-308.72940	228.52760	1054.05062	-287.15017	-110.33503	1236.38420	-699.85227	-20.60410	1030.57624	-727.90025	-3.86226	1078.64187	-771.91030	99.79762	1098.42456	-747.43185	214.91470	1103.27462	-692.99661	221.81202	1068.90922	-713.61330	-327.86256	796.55241	-416.90820	-333.10293	796.48513	-624.34934	-315.67100	819.07687	-443.93412	-315.88141	810.62235	-585.89747	
333	3.32000000	-171.47704	449.77270	-393.29180	-133.81780	381.93911	-398.81005	-280.24906	82.93495	-427.03475	-334.31740	53.55704	-473.40479	-174.46608	42.51306	-399.15707	-135.84674	60.88755	-451.55129	-176.01633	461.70612	-760.99269	-144.23423	370.19703	-769.87039	-275.75619	96.31278	-794.71251	-334.70946	54.92958	-751.17999	-177.61800	43.73244	-830.10426	-126.66138	61.78024	-778.30033	-175.57597	277.12803	-396.37225	-197.38517	407.28206	-364.30004	-246.72068	302.51315	-365.16164	-220.41330	411.97052	-793.47954	-260.15525	297.92800	-812.72300	-229.88060	693.85770	-333.93563	-181.07159	592.75614	-353.07158	-277.97112	546.45783	-374.92745	-331.39609	646.32754	-344.93322	-228.63698	545.38335	-351.58062	-268.52539	726.98086	-743.22928	-199.55938	606.38313	-754.24488	-366.97896	674.55375	-728.92702	-296.13178	553.26242	-726.34590	-230.49529	853.39231	-417.29180	-422.34926	940.12789	-482.50122	-238.41100	851.82468	-632.90215	-422.86529	935.26038	-564.15078	-205.79516	1323.75890	-485.69142	-140.82852	1284.50383	-351.40405	-154.06473	1296.41929	-621.16987	-94.95572	1242.05281	-471.57723	-97.30960	1241.41427	-505.95131	-79.54080	1206.61292	-293.84904	-19.16332	997.27972	-266.88839	9.92012	1037.93099	-220.45656	94.67598	1071.64913	-247.46299	222.32455	1079.32152	-310.36225	232.73728	1049.18992	-288.59101	-107.19669	1230.26630	-699.47489	-16.61342	1024.98346	-728.76494	0.07409	1073.40748	-772.55391	103.43865	1093.77023	-747.42348	218.18958	1099.12177	-691.96477	225.50120	1065.25865	-713.34921	-332.37820	792.53156	-416.52856	-338.47401	791.91251	-623.94482	-320.02890	814.40867	-443.63628	-320.92619	805.93423	-585.78361	
334	3.33000000	-169.26928	448.69208	-394.16598	-131.42597	380.81984	-399.74760	-280.24021	82.93427	-427.10642	-334.37477	53.45038	-473.46027	-174.48685	42.61491	-399.22793	-135.94913	60.94785	-451.73878	-174.61130	461.09105	-761.52454	-142.78572	369.28598	-770.32398	-275.71144	96.17927	-794.69403	-334.73920	54.89134	-751.20463	-177.64570	43.73436	-830.12803	-126.67791	61.84475	-778.33892	-173.77767	275.92179	-397.45962	-194.63436	406.61151	-365.02413	-244.74746	302.18190	-365.53991	-218.63372	411.41537	-794.22156	-259.09727	297.51675	-813.23768	-232.08367	690.98657	-334.22046	-181.60165	590.92138	-353.39439	-277.56075	542.98600	-375.44535	-332.91468	641.85479	-345.63828	-228.37623	542.57140	-351.97537	-271.98856	724.48351	-743.13993	-200.84308	605.29002	-754.26305	-369.69571	670.13389	-728.68548	-296.57702	550.42119	-727.20551	-234.14069	848.02169	-417.40822	-425.17458	936.70290	-481.98969	-243.24490	845.91553	-633.05281	-426.05417	931.92663	-563.75526	-202.24050	1316.62902	-485.86647	-137.00141	1276.74748	-352.09533	-150.78646	1289.01194	-620.94242	-92.50649	1233.32900	-472.38354	-94.90633	1232.78483	-506.31844	-75.64294	1199.48711	-294.69803	-14.82594	990.54255	-266.68346	14.64567	1031.57088	-220.66876	99.02471	1065.73332	-248.28125	226.17239	1074.19805	-312.02335	236.92473	1044.05403	-290.17113	-104.00358	1223.92415	-699.46279	-12.51593	1019.14881	-729.83071	4.03175	1067.93245	-772.96243	107.17764	1088.81812	-747.24443	221.55654	1094.82632	-691.01519	229.22575	1061.60073	-713.42939	-336.76104	788.36828	-416.06935	-343.84898	787.26640	-623.45260	-324.31576	809.51796	-443.45337	-325.84419	801.21069	-585.66154	
335	3.34000000	-167.13566	447.69057	-394.76181	-129.16414	379.71733	-400.60663	-280.14159	82.98583	-427.23961	-334.40334	53.37210	-473.53290	-174.51385	42.68678	-399.31083	-135.96662	60.97100	-451.85263	-173.10549	460.56399	-762.09876	-141.25305	368.51164	-770.68620	-275.58016	96.17271	-794.68074	-334.76892	54.86336	-751.18001	-177.65113	43.75065	-830.11168	-126.66682	61.89702	-778.31538	-172.16232	274.83621	-398.24049	-192.04662	405.98201	-365.68807	-242.98513	301.69460	-365.95825	-216.63492	411.10059	-794.99663	-257.93639	296.98875	-813.60082	-234.39219	688.20705	-334.20182	-182.04337	589.26215	-353.60750	-277.07669	539.60340	-376.02902	-334.39283	637.37666	-346.20594	-227.91215	540.03535	-352.56609	-275.47389	722.03824	-743.03306	-202.04622	604.21791	-754.17541	-372.19110	665.73506	-728.59439	-296.91131	547.66917	-727.95268	-237.77151	842.39597	-417.59058	-428.00147	933.16506	-481.53057	-247.84851	839.97774	-632.94118	-429.12709	928.39534	-563.23946	-198.78125	1309.36683	-486.05403	-133.22266	1268.74878	-352.90538	-147.49158	1281.32398	-620.73586	-90.07121	1224.36325	-473.27047	-92.51225	1223.91743	-506.74322	-71.82497	1192.11526	-295.61024	-10.22584	982.93074	-267.55397	19.32269	1025.06738	-220.95677	103.34678	1059.57689	-249.18598	229.99630	1068.76781	-313.61903	241.10542	1038.75043	-291.82830	-100.59068	1217.21942	-699.68840	-8.35445	1013.05781	-730.78987	8.06187	1062.18477	-773.36439	110.95665	1083.58830	-747.02704	224.95272	1090.33430	-690.21868	232.96781	1057.51616	-713.20667	-341.12000	783.97736	-415.62952	-349.03594	782.57195	-622.98155	-328.58816	804.72785	-443.36831	-330.54590	796.43598	-585.40920	
336	3.35000000	-165.15641	446.63168	-395.27041	-126.95123	378.66848	-401.18442	-280.04296	83.05832	-427.35770	-334.38997	53.35682	-473.56883	-174.53625	42.74457	-399.39531	-135.95787	60.98904	-451.87422	-171.57300	460.01164	-762.49263	-139.69583	367.84518	-771.00436	-275.43290	96.26467	-794.71795	-334.79459	54.83527	-751.12400	-177.64324	43.77970	-830.07424	-126.65348	61.93818	-778.23949	-170.80783	274.25874	-398.41141	-189.72179	405.20847	-366.32882	-241.22155	301.21852	-366.33907	-215.11288	410.68168	-795.55678	-256.66311	296.46475	-813.82950	-236.93447	685.46056	-333.97365	-182.53803	587.54101	-353.73257	-276.55718	536.34472	-376.47171	-335.68152	633.22119	-346.53912	-227.46463	537.64522	-352.79265	-278.89024	719.63446	-742.91999	-203.15641	603.10739	-753.80505	-374.63232	661.54529	-728.60238	-297.20946	544.80192	-728.55715	-241.37453	836.68546	-417.59396	-430.75186	929.49686	-481.15597	-252.18960	834.02731	-632.63465	-432.17146	924.67084	-562.73638	-195.46370	1301.94190	-486.26379	-129.49648	1260.57412	-353.64148	-144.25945	1273.47868	-620.59013	-87.61002	1215.38151	-472.91679	-90.27002	1214.83140	-507.14856	-68.14834	1184.52002	-296.56934	-5.41728	975.43135	-268.36859	23.92316	1018.41597	-221.30327	107.62330	1053.26244	-250.17987	233.79532	1063.02585	-315.20182	245.28021	1033.31186	-293.40830	-97.11751	1210.10757	-699.81203	-4.13977	1006.75603	-731.68780	12.18752	1056.20053	-774.09765	114.68109	1078.17450	-747.00418	228.30526	1085.59001	-689.48648	236.69882	1052.92410	-712.43942	-345.42551	779.48066	-415.13088	-353.94686	777.78847	-622.45681	-332.68067	799.99947	-443.02142	-335.14917	791.60747	-584.86864	
